<?xml version="1.0" encoding="UTF-8"?>
<svg width="200px" height="220px" viewBox="0 0 200 220" version="1.1" xmlns="http://www.w3.org/2000/svg" xmlns:xlink="http://www.w3.org/1999/xlink">
    <!-- Generator: Sketch 42 (36781) - http://www.bohemiancoding.com/sketch -->
    <title>协作版设计管理 copy</title>
    <desc>Created with Sketch.</desc>
    <defs>
        <linearGradient x1="0%" y1="0%" x2="101.999998%" y2="100.999999%" id="linearGradient-1">
            <stop stop-color="#5EA2FF" offset="0%"></stop>
            <stop stop-color="#00D5FF" offset="62.5956633%"></stop>
            <stop stop-color="#00E3FF" offset="100%"></stop>
        </linearGradient>
    </defs>
    <g id="Page-1" stroke="none" stroke-width="1" fill="none" fill-rule="evenodd">
        <g id="协作版设计管理-copy">
            <g id="移动到文件夹面" transform="translate(34.000000, 110.000000)" fill="url(#linearGradient-1)">
                <g id="Page-1" transform="translate(1.000000, 3.000000)">
                    <g id="Group-6">
                        <path d="M15.6211,10.014 L12.1141,6.507 C11.8581,6.251 11.4421,6.251 11.1861,6.507 C10.9301,6.763 10.9301,7.179 11.1861,7.435 L13.5931,9.842 L6.8431,9.842 C6.4801,9.842 6.1871,10.136 6.1871,10.498 C6.1871,10.86 6.4801,11.154 6.8431,11.154 L13.5531,11.154 L11.1461,13.561 C10.8901,13.817 10.8901,14.233 11.1461,14.489 C11.2741,14.617 11.4421,14.681 11.6101,14.681 C11.7781,14.681 11.9461,14.617 12.0741,14.489 L15.5151,11.048 C15.6951,10.931 15.8131,10.728 15.8131,10.498 L15.8131,10.488 L15.8131,10.478 C15.8131,10.304 15.7441,10.137 15.6211,10.014" id="Fill-2"></path>
                        <path d="M20.0923,16.6742 L1.9073,16.6742 L1.9073,4.5722 L10.6703,4.5722 L19.5763,4.5722 C19.8613,4.5722 20.0923,4.8032 20.0923,5.0872 L20.0923,16.6742 Z M19.5763,3.2592 L10.6703,3.2592 C10.3863,3.2592 10.1543,3.0282 10.1543,2.7442 L10.1543,1.9232 C10.1543,0.9152 9.3343,0.0952 8.3263,0.0952 L2.4233,0.0952 C1.4153,0.0952 0.5953,0.9152 0.5953,1.9232 L0.5953,17.3302 C0.5953,17.6932 0.8893,17.9862 1.2513,17.9862 L20.7483,17.9862 C21.1113,17.9862 21.4043,17.6932 21.4043,17.3302 L21.4043,5.0872 C21.4043,4.0792 20.5843,3.2592 19.5763,3.2592 L19.5763,3.2592 Z" id="Fill-4"></path>
                    </g>
                </g>
            </g>
            <path d="M56.6,17.4 L56.6,11 L53.4,11 L53.4,17.4 L47,17.4 L47,20.6 L53.4,20.6 L53.4,27 L56.6,27 L56.6,20.6 L63,20.6 L63,17.4 L56.6,17.4 Z" id="Combined-Shape" fill="#D8D8D8"></path>
            <path d="M56.6,35.4 L56.6,29 L53.4,29 L53.4,35.4 L47,35.4 L47,38.6 L53.4,38.6 L53.4,45 L56.6,45 L56.6,38.6 L63,38.6 L63,35.4 L56.6,35.4 Z" id="Combined-Shape-Copy" fill="url(#linearGradient-1)"></path>
            <g id="Group-11" transform="translate(29.000000, 18.000000)" fill="#D8D8D8">
                <ellipse id="Oval-6" cx="1.5" cy="1.5" rx="1.5" ry="1.5"></ellipse>
                <ellipse id="Oval-6-Copy" cx="7.5" cy="1.5" rx="1.5" ry="1.5"></ellipse>
                <circle id="Oval-6-Copy-2" cx="13.5" cy="1.5" r="1.5"></circle>
            </g>
            <g id="Group-11-Copy" transform="translate(29.000000, 36.000000)" fill="#9B9B9B">
                <ellipse id="Oval-6" cx="1.5" cy="1.5" rx="1.5" ry="1.5"></ellipse>
                <ellipse id="Oval-6-Copy" cx="7.5" cy="1.5" rx="1.5" ry="1.5"></ellipse>
                <circle id="Oval-6-Copy-2" cx="13.5" cy="1.5" r="1.5"></circle>
            </g>
            <g id="页面-1" transform="translate(10.000000, 176.000000)" fill="url(#linearGradient-1)">
                <g id="Page-1" transform="translate(3.000000, 2.000000)">
                    <path d="M18.7325469,20.0682594 C17.3425781,20.0682594 16.2117656,18.9425719 16.2117656,17.5588844 C16.2117656,16.1751969 17.3425781,15.0495406 18.7325469,15.0495406 C20.1225156,15.0495406 21.2533281,16.1751969 21.2533281,17.5588844 C21.2533281,18.9425719 20.1225156,20.0682594 18.7325469,20.0682594 Z" id="Fill-1"></path>
                    <path d="M21.0314844,20.9550656 C20.4486719,20.6732844 19.6752031,20.5304406 18.7325469,20.5304406 C17.8181406,20.5304406 17.0207656,20.6874719 16.4267031,20.9845344 C15.6747031,21.3605344 15.2605469,21.9615031 15.2605469,22.6766594 C15.2605469,23.4855656 15.6287031,24.7139406 16.1765781,25.7333156 C16.4904219,26.3171906 16.8382969,26.7896594 17.2105469,27.1375344 C17.6942344,27.5895656 18.2062969,27.8187219 18.7325469,27.8187219 C19.2583906,27.8187219 19.7700781,27.5910031 20.2533906,27.1419094 C20.6263281,26.7952844 20.9744531,26.3245344 21.2881406,25.7426281 C21.8362969,24.7258781 22.2045469,23.4937531 22.2045469,22.6766594 C22.2045469,21.9321906 21.7879531,21.3207844 21.0314844,20.9550656" id="Fill-3"></path>
                    <path d="M22.3293125,17.5588719 C22.3293125,17.7699031 22.308125,17.9760906 22.2684063,18.1756844 C22.500875,18.2565906 22.7503438,18.3010906 23.0102188,18.3010906 C24.2533438,18.3010906 25.26475,17.2942781 25.26475,16.0567469 C25.26475,14.8192469 24.2533438,13.8124344 23.0102188,13.8124344 C22.1503438,13.8124344 21.401625,14.2942469 21.0214688,15.0007781 C21.8135625,15.5776531 22.3293125,16.5092781 22.3293125,17.5588719" id="Fill-5"></path>
                    <path d="M16.4435844,15.0007938 C16.0634906,14.2942625 15.3147719,13.8124188 14.4548969,13.8124188 C13.2117406,13.8124188 12.2003656,14.8192625 12.2003656,16.0567625 C12.2003656,17.2942938 13.2117406,18.3010438 14.4548969,18.3010438 C14.7147719,18.3010438 14.9642094,18.2565125 15.1967406,18.1756688 C15.1569594,17.9761063 15.1358031,17.7699188 15.1358031,17.5588875 C15.1358031,16.5092625 15.6515219,15.5777 16.4435844,15.0007938" id="Fill-7"></path>
                    <path d="M15.7156188,20.39555 C15.9364,20.2851437 16.17965,20.1917688 16.4415563,20.1155187 C15.9752125,19.7752688 15.6049625,19.311925 15.379525,18.77405 C15.0954625,18.7345813 14.7871188,18.7143937 14.4549,18.7143937 C13.6370875,18.7143937 12.9239313,18.8548625 12.3925875,19.12055 C11.7200563,19.4568625 11.34965,19.9943 11.34965,20.6339563 C11.34965,21.3573937 11.6789313,22.45605 12.1689313,23.3677375 C12.4496188,23.8899563 12.7607438,24.3124875 13.09365,24.6236437 C13.526275,25.027925 13.9842438,25.2328938 14.4549,25.2328938 C14.5638688,25.2328938 14.6721813,25.2214563 14.7795875,25.1996437 C14.4086188,24.302425 14.1846188,23.3748625 14.1846188,22.6766438 C14.1846188,21.7134875 14.7425875,20.8821125 15.7156188,20.39555" id="Fill-9"></path>
                    <path d="M25.0663063,19.0942188 C24.545025,18.8421875 23.853275,18.7144063 23.0102125,18.7144063 C22.6823375,18.7144063 22.3716813,18.7373438 22.0824,18.7815 C21.85965,19.3095313 21.4974,19.7654063 21.041525,20.1027813 C21.2914938,20.1733125 21.5228063,20.2597813 21.7345563,20.3621563 C22.7169938,20.8371563 23.2804938,21.68075 23.2804938,22.6766563 C23.2804938,23.37875 23.0579625,24.30575 22.6891813,25.20025 C22.7954625,25.221625 22.9024313,25.2329063 23.0102125,25.2329063 C23.4804938,25.2329063 23.93815,25.0291875 24.3704,24.6275 C24.7039313,24.3175625 25.0153375,23.8965 25.2958688,23.3760625 C25.7860563,22.46675 26.1154625,21.36475 26.1154625,20.6339375 C26.1154625,19.968125 25.7428688,19.42125 25.0663063,19.0942188" id="Fill-11"></path>
                    <path d="M11.6884594,27.4471813 L1.76452188,27.4471813 C1.28127188,27.4471813 0.889521875,27.0554313 0.889521875,26.5721813 L0.889521875,1.3962125 C0.889521875,0.9129625 1.28127188,0.5212125 1.76452188,0.5212125 L23.2353969,0.5212125 C23.7186469,0.5212125 24.1103969,0.9129625 24.1103969,1.3962125 L24.1103969,11.6695875 C24.1103969,12.1528375 23.7186469,12.5445875 23.2353969,12.5445875 C22.7521781,12.5445875 22.3603969,12.1528375 22.3603969,11.6695875 L22.3603969,2.2712125 L2.63952188,2.2712125 L2.63952188,25.6971813 L11.6884594,25.6971813 C12.1717094,25.6971813 12.5634594,26.0889313 12.5634594,26.5721813 C12.5634594,27.0554313 12.1717094,27.4471813 11.6884594,27.4471813" id="Fill-13"></path>
                    <path d="M19.3383156,6.26074375 L5.66162812,6.26074375 C5.17837812,6.26074375 4.78662812,5.86899375 4.78662812,5.38574375 C4.78662812,4.90249375 5.17837812,4.51074375 5.66162812,4.51074375 L19.3383156,4.51074375 C19.8215656,4.51074375 20.2133156,4.90249375 20.2133156,5.38574375 C20.2133156,5.86899375 19.8215656,6.26074375 19.3383156,6.26074375" id="Fill-15"></path>
                    <path d="M19.3383156,10.4948969 L5.66162812,10.4948969 C5.17837812,10.4948969 4.78662812,10.1031469 4.78662812,9.61989687 C4.78662812,9.13664687 5.17837812,8.74489687 5.66162812,8.74489687 L19.3383156,8.74489687 C19.8215656,8.74489687 20.2133156,9.13664687 20.2133156,9.61989687 C20.2133156,10.1031469 19.8215656,10.4948969 19.3383156,10.4948969" id="Fill-17"></path>
                    <path d="M10.3437188,14.72905 L5.661625,14.72905 C5.178375,14.72905 4.786625,14.3373 4.786625,13.85405 C4.786625,13.3708 5.178375,12.97905 5.661625,12.97905 L10.3437188,12.97905 C10.8269688,12.97905 11.2187188,13.3708 11.2187188,13.85405 C11.2187188,14.3373 10.8269688,14.72905 10.3437188,14.72905" id="Fill-19"></path>
                    <path d="M9.68746875,18.9632031 L5.661625,18.9632031 C5.178375,18.9632031 4.786625,18.5714531 4.786625,18.0882031 C4.786625,17.6049531 5.178375,17.2132031 5.661625,17.2132031 L9.68746875,17.2132031 C10.1707188,17.2132031 10.5624688,17.6049531 10.5624688,18.0882031 C10.5624688,18.5714531 10.1707188,18.9632031 9.68746875,18.9632031" id="Fill-21"></path>
                    <path d="M8.78121875,23.1973562 L5.661625,23.1973562 C5.178375,23.1973562 4.786625,22.8056062 4.786625,22.3223562 C4.786625,21.8391062 5.178375,21.4473562 5.661625,21.4473562 L8.78121875,21.4473562 C9.26446875,21.4473562 9.65621875,21.8391062 9.65621875,22.3223562 C9.65621875,22.8056062 9.26446875,23.1973562 8.78121875,23.1973562" id="Fill-23"></path>
                </g>
            </g>
            <g id="页面-1-copy" transform="translate(10.000000, 144.000000)" fill="#9B9B9B">
                <g id="Page-1" transform="translate(3.000000, 2.000000)">
                    <path d="M18.7325469,20.0682594 C17.3425781,20.0682594 16.2117656,18.9425719 16.2117656,17.5588844 C16.2117656,16.1751969 17.3425781,15.0495406 18.7325469,15.0495406 C20.1225156,15.0495406 21.2533281,16.1751969 21.2533281,17.5588844 C21.2533281,18.9425719 20.1225156,20.0682594 18.7325469,20.0682594 Z" id="Fill-1"></path>
                    <path d="M21.0314844,20.9550656 C20.4486719,20.6732844 19.6752031,20.5304406 18.7325469,20.5304406 C17.8181406,20.5304406 17.0207656,20.6874719 16.4267031,20.9845344 C15.6747031,21.3605344 15.2605469,21.9615031 15.2605469,22.6766594 C15.2605469,23.4855656 15.6287031,24.7139406 16.1765781,25.7333156 C16.4904219,26.3171906 16.8382969,26.7896594 17.2105469,27.1375344 C17.6942344,27.5895656 18.2062969,27.8187219 18.7325469,27.8187219 C19.2583906,27.8187219 19.7700781,27.5910031 20.2533906,27.1419094 C20.6263281,26.7952844 20.9744531,26.3245344 21.2881406,25.7426281 C21.8362969,24.7258781 22.2045469,23.4937531 22.2045469,22.6766594 C22.2045469,21.9321906 21.7879531,21.3207844 21.0314844,20.9550656" id="Fill-3"></path>
                    <path d="M22.3293125,17.5588719 C22.3293125,17.7699031 22.308125,17.9760906 22.2684063,18.1756844 C22.500875,18.2565906 22.7503438,18.3010906 23.0102188,18.3010906 C24.2533438,18.3010906 25.26475,17.2942781 25.26475,16.0567469 C25.26475,14.8192469 24.2533438,13.8124344 23.0102188,13.8124344 C22.1503438,13.8124344 21.401625,14.2942469 21.0214688,15.0007781 C21.8135625,15.5776531 22.3293125,16.5092781 22.3293125,17.5588719" id="Fill-5"></path>
                    <path d="M16.4435844,15.0007938 C16.0634906,14.2942625 15.3147719,13.8124188 14.4548969,13.8124188 C13.2117406,13.8124188 12.2003656,14.8192625 12.2003656,16.0567625 C12.2003656,17.2942938 13.2117406,18.3010438 14.4548969,18.3010438 C14.7147719,18.3010438 14.9642094,18.2565125 15.1967406,18.1756688 C15.1569594,17.9761063 15.1358031,17.7699188 15.1358031,17.5588875 C15.1358031,16.5092625 15.6515219,15.5777 16.4435844,15.0007938" id="Fill-7"></path>
                    <path d="M15.7156188,20.39555 C15.9364,20.2851437 16.17965,20.1917688 16.4415563,20.1155187 C15.9752125,19.7752688 15.6049625,19.311925 15.379525,18.77405 C15.0954625,18.7345813 14.7871188,18.7143937 14.4549,18.7143937 C13.6370875,18.7143937 12.9239313,18.8548625 12.3925875,19.12055 C11.7200563,19.4568625 11.34965,19.9943 11.34965,20.6339563 C11.34965,21.3573937 11.6789313,22.45605 12.1689313,23.3677375 C12.4496188,23.8899563 12.7607438,24.3124875 13.09365,24.6236437 C13.526275,25.027925 13.9842438,25.2328938 14.4549,25.2328938 C14.5638688,25.2328938 14.6721813,25.2214563 14.7795875,25.1996437 C14.4086188,24.302425 14.1846188,23.3748625 14.1846188,22.6766438 C14.1846188,21.7134875 14.7425875,20.8821125 15.7156188,20.39555" id="Fill-9"></path>
                    <path d="M25.0663063,19.0942188 C24.545025,18.8421875 23.853275,18.7144063 23.0102125,18.7144063 C22.6823375,18.7144063 22.3716813,18.7373438 22.0824,18.7815 C21.85965,19.3095313 21.4974,19.7654063 21.041525,20.1027813 C21.2914938,20.1733125 21.5228063,20.2597813 21.7345563,20.3621563 C22.7169938,20.8371563 23.2804938,21.68075 23.2804938,22.6766563 C23.2804938,23.37875 23.0579625,24.30575 22.6891813,25.20025 C22.7954625,25.221625 22.9024313,25.2329063 23.0102125,25.2329063 C23.4804938,25.2329063 23.93815,25.0291875 24.3704,24.6275 C24.7039313,24.3175625 25.0153375,23.8965 25.2958688,23.3760625 C25.7860563,22.46675 26.1154625,21.36475 26.1154625,20.6339375 C26.1154625,19.968125 25.7428688,19.42125 25.0663063,19.0942188" id="Fill-11"></path>
                    <path d="M11.6884594,27.4471813 L1.76452188,27.4471813 C1.28127188,27.4471813 0.889521875,27.0554313 0.889521875,26.5721813 L0.889521875,1.3962125 C0.889521875,0.9129625 1.28127188,0.5212125 1.76452188,0.5212125 L23.2353969,0.5212125 C23.7186469,0.5212125 24.1103969,0.9129625 24.1103969,1.3962125 L24.1103969,11.6695875 C24.1103969,12.1528375 23.7186469,12.5445875 23.2353969,12.5445875 C22.7521781,12.5445875 22.3603969,12.1528375 22.3603969,11.6695875 L22.3603969,2.2712125 L2.63952188,2.2712125 L2.63952188,25.6971813 L11.6884594,25.6971813 C12.1717094,25.6971813 12.5634594,26.0889313 12.5634594,26.5721813 C12.5634594,27.0554313 12.1717094,27.4471813 11.6884594,27.4471813" id="Fill-13"></path>
                    <path d="M19.3383156,6.26074375 L5.66162812,6.26074375 C5.17837812,6.26074375 4.78662812,5.86899375 4.78662812,5.38574375 C4.78662812,4.90249375 5.17837812,4.51074375 5.66162812,4.51074375 L19.3383156,4.51074375 C19.8215656,4.51074375 20.2133156,4.90249375 20.2133156,5.38574375 C20.2133156,5.86899375 19.8215656,6.26074375 19.3383156,6.26074375" id="Fill-15"></path>
                    <path d="M19.3383156,10.4948969 L5.66162812,10.4948969 C5.17837812,10.4948969 4.78662812,10.1031469 4.78662812,9.61989687 C4.78662812,9.13664687 5.17837812,8.74489687 5.66162812,8.74489687 L19.3383156,8.74489687 C19.8215656,8.74489687 20.2133156,9.13664687 20.2133156,9.61989687 C20.2133156,10.1031469 19.8215656,10.4948969 19.3383156,10.4948969" id="Fill-17"></path>
                    <path d="M10.3437188,14.72905 L5.661625,14.72905 C5.178375,14.72905 4.786625,14.3373 4.786625,13.85405 C4.786625,13.3708 5.178375,12.97905 5.661625,12.97905 L10.3437188,12.97905 C10.8269688,12.97905 11.2187188,13.3708 11.2187188,13.85405 C11.2187188,14.3373 10.8269688,14.72905 10.3437188,14.72905" id="Fill-19"></path>
                    <path d="M9.68746875,18.9632031 L5.661625,18.9632031 C5.178375,18.9632031 4.786625,18.5714531 4.786625,18.0882031 C4.786625,17.6049531 5.178375,17.2132031 5.661625,17.2132031 L9.68746875,17.2132031 C10.1707188,17.2132031 10.5624688,17.6049531 10.5624688,18.0882031 C10.5624688,18.5714531 10.1707188,18.9632031 9.68746875,18.9632031" id="Fill-21"></path>
                    <path d="M8.78121875,23.1973562 L5.661625,23.1973562 C5.178375,23.1973562 4.786625,22.8056062 4.786625,22.3223562 C4.786625,21.8391062 5.178375,21.4473562 5.661625,21.4473562 L8.78121875,21.4473562 C9.26446875,21.4473562 9.65621875,21.8391062 9.65621875,22.3223562 C9.65621875,22.8056062 9.26446875,23.1973562 8.78121875,23.1973562" id="Fill-23"></path>
                </g>
            </g>
            <polygon id="Path-2" fill="#ECECEC" fill-rule="nonzero" points="46.9523635 148 46 149.751156 86 172 126 149.751156 125.047637 148 86 169.719119"></polygon>
            <path d="M19.80775,18.835 L25.46975,13.173 C25.73775,12.905 25.73775,12.47 25.46975,12.201 C25.20075,11.933 24.76575,11.933 24.49675,12.201 L18.83575,17.863 L13.18175,12.209 C12.91275,11.94 12.47775,11.94 12.20975,12.209 C11.94075,12.477 11.94075,12.913 12.20975,13.181 L17.86275,18.835 L12.20175,24.497 C11.93275,24.765 11.93275,25.2 12.20175,25.469 C12.33575,25.603 12.51175,25.67 12.68775,25.67 C12.86375,25.67 13.03975,25.603 13.17375,25.469 L18.83575,19.807 L24.48975,25.461 C24.62375,25.595 24.79975,25.663 24.97575,25.663 C25.15175,25.663 25.32775,25.595 25.46175,25.461 C25.72975,25.193 25.72975,24.757 25.46175,24.489 L19.80775,18.835 Z" id="Fill-1" fill="#BFBFBF"></path>
            <path d="M19.80775,36.835 L25.46975,31.173 C25.73775,30.905 25.73775,30.47 25.46975,30.201 C25.20075,29.933 24.76575,29.933 24.49675,30.201 L18.83575,35.863 L13.18175,30.209 C12.91275,29.94 12.47775,29.94 12.20975,30.209 C11.94075,30.477 11.94075,30.913 12.20975,31.181 L17.86275,36.835 L12.20175,42.497 C11.93275,42.765 11.93275,43.2 12.20175,43.469 C12.33575,43.603 12.51175,43.67 12.68775,43.67 C12.86375,43.67 13.03975,43.603 13.17375,43.469 L18.83575,37.807 L24.48975,43.461 C24.62375,43.595 24.79975,43.663 24.97575,43.663 C25.15175,43.663 25.32775,43.595 25.46175,43.461 C25.72975,43.193 25.72975,42.757 25.46175,42.489 L19.80775,36.835 Z" id="Fill-1" fill="#9B9B9B"></path>
            <g id="Page-1" transform="translate(11.000000, 57.000000)" fill="#FFFFFF">
                <path d="M10.221041,8.9950293 L17.2980137,1.91805664 C17.6336191,1.58245117 17.6336191,1.03833008 17.2980137,0.702724609 C16.9623887,0.367119141 16.4182871,0.367119141 16.0826621,0.702724609 L9.00570898,7.77969727 L1.93832617,0.712314453 C1.60270117,0.376708984 1.05859961,0.376708984 0.722974609,0.712314453 C0.387369141,1.04791992 0.387369141,1.59204102 0.722974609,1.92764648 L7.79035742,8.9950293 L0.713384766,16.072002 C0.377779297,16.4076074 0.377779297,16.9517285 0.713384766,17.287334 C0.881197266,17.4551465 1.10111914,17.5390527 1.32106055,17.5390527 C1.54100195,17.5390527 1.76092383,17.4551465 1.92873633,17.287334 L9.00570898,10.2103613 L16.0730723,17.2777637 C16.2408848,17.4455566 16.4608066,17.5294629 16.680748,17.5294629 C16.9006895,17.5294629 17.1206113,17.4455566 17.2884238,17.2777637 C17.6240293,16.9421387 17.6240293,16.3980176 17.2884238,16.0624121 L10.221041,8.9950293 Z" id="Fill-2"></path>
            </g>
            <g id="页面-1" transform="translate(10.000000, 110.000000)" fill="url(#linearGradient-1)">
                <g id="Page-1" transform="translate(2.000000, 2.000000)">
                    <g id="Group-10" transform="translate(0.320312, 0.320312)">
                        <path d="M8.18772188,0.0230015625 L0.679260938,0.0230015625 C0.316823438,0.0230015625 0.0230109375,0.316814062 0.0230109375,0.679251563 L0.0230109375,6.67838438 C0.0230109375,7.04082188 0.316823438,7.33463438 0.679260938,7.33463438 L8.18772188,7.33463438 C8.55015938,7.33463438 8.84397188,7.04082188 8.84397188,6.67838438 L8.84397188,0.679251563 C8.84397188,0.316814062 8.55015938,0.0230015625 8.18772188,0.0230015625" id="Fill-2"></path>
                        <path d="M18.7173375,12.0041133 L11.2088766,12.0041133 C10.8464391,12.0041133 10.5526266,12.2979258 10.5526266,12.6603633 L10.5526266,18.6594961 C10.5526266,19.0219336 10.8464391,19.3157461 11.2088766,19.3157461 L18.7173375,19.3157461 C19.079775,19.3157461 19.3735875,19.0219336 19.3735875,18.6594961 L19.3735875,12.6603633 C19.3735875,12.2979258 19.079775,12.0041133 18.7173375,12.0041133" id="Fill-4"></path>
                        <path d="M8.18772188,9.02169844 L0.679260938,9.02169844 C0.316823438,9.02169844 0.0230109375,9.31551094 0.0230109375,9.67794844 L0.0230109375,18.6384328 C0.0230109375,19.0008703 0.316823438,19.2946828 0.679260938,19.2946828 L8.18772188,19.2946828 C8.55015938,19.2946828 8.84397188,19.0008703 8.84397188,18.6384328 L8.84397188,9.67794844 C8.84397188,9.31551094 8.55015938,9.02169844 8.18772188,9.02169844" id="Fill-6"></path>
                        <path d="M11.2495641,10.2999867 L18.67665,10.2999867 C19.0390875,10.2999867 19.3329,10.0061742 19.3329,9.64373672 L19.3329,0.679244531 C19.3329,0.316807031 19.0390875,0.0229945312 18.67665,0.0229945312 L11.2495641,0.0229945312 C10.8871266,0.0229945312 10.5933141,0.316807031 10.5933141,0.679244531 L10.5933141,9.64373672 C10.5933141,10.0061742 10.8871266,10.2999867 11.2495641,10.2999867" id="Fill-8"></path>
                    </g>
                </g>
            </g>
            <g id="页面-1" transform="translate(10.000000, 86.000000)" fill="#BFBFBF">
                <g id="Page-1" transform="translate(2.000000, 2.000000)">
                    <path d="M1.65580469,6.3424375 L7.85176562,6.3424375 L7.85176562,1.65580469 L1.65580469,1.65580469 L1.65580469,6.3424375 Z M8.50801562,7.6549375 L0.999554687,7.6549375 C0.637140625,7.6549375 0.343304687,7.361125 0.343304687,6.9986875 L0.343304687,0.999554687 C0.343304687,0.637117187 0.637140625,0.343304687 0.999554687,0.343304687 L8.50801562,0.343304687 C8.87045312,0.343304687 9.16426562,0.637117187 9.16426562,0.999554687 L9.16426562,6.9986875 C9.16426562,7.361125 8.87045312,7.6549375 8.50801562,7.6549375 L8.50801562,7.6549375 Z" id="Fill-1"></path>
                    <path d="M12.1854297,18.3235469 L18.3813906,18.3235469 L18.3813906,13.6369141 L12.1854297,13.6369141 L12.1854297,18.3235469 Z M19.0376406,19.6360469 L11.5291797,19.6360469 C11.1667422,19.6360469 10.8729297,19.3422578 10.8729297,18.9797969 L10.8729297,12.9806875 C10.8729297,12.6182266 11.1667422,12.3244375 11.5291797,12.3244375 L19.0376406,12.3244375 C19.4000781,12.3244375 19.6938906,12.6182266 19.6938906,12.9806875 L19.6938906,18.9797969 C19.6938906,19.3422578 19.4000781,19.6360469 19.0376406,19.6360469 L19.0376406,19.6360469 Z" id="Fill-3"></path>
                    <path d="M1.65580469,18.3025 L7.85176562,18.3025 L7.85176562,10.6545156 L1.65580469,10.6545156 L1.65580469,18.3025 Z M8.50801562,19.615 L0.999554687,19.615 C0.637140625,19.615 0.343304687,19.3211875 0.343304687,18.95875 L0.343304687,9.99826563 C0.343304687,9.63582812 0.637140625,9.34201563 0.999554687,9.34201563 L8.50801562,9.34201563 C8.87045312,9.34201563 9.16426562,9.63582812 9.16426562,9.99826563 L9.16426562,18.95875 C9.16426562,19.3211875 8.87045312,19.615 8.50801562,19.615 L8.50801562,19.615 Z" id="Fill-4"></path>
                    <path d="M12.2261172,9.30779688 L18.3407266,9.30779688 L18.3407266,1.65580469 L12.2261172,1.65580469 L12.2261172,9.30779688 Z M18.9969766,10.6202969 L11.5698672,10.6202969 C11.2074297,10.6202969 10.9136172,10.3264844 10.9136172,9.96404688 L10.9136172,0.999554687 C10.9136172,0.637117187 11.2074297,0.343304687 11.5698672,0.343304687 L18.9969766,0.343304687 C19.3593906,0.343304687 19.6532266,0.637117187 19.6532266,0.999554687 L19.6532266,9.96404688 C19.6532266,10.3264844 19.3593906,10.6202969 18.9969766,10.6202969 L18.9969766,10.6202969 Z" id="Fill-6"></path>
                </g>
            </g>
            <g id="页面-1-copy-2" transform="translate(58.000000, 86.000000)" fill="#BFBFBF">
                <g id="Page-1" transform="translate(3.000000, 1.000000)">
                    <path d="M6.79530703,21.0298883 L1.03057266,21.0298883 C0.668135156,21.0298883 0.374322656,20.7360758 0.374322656,20.3736383 L0.374322656,1.62635703 C0.374322656,1.26391953 0.668135156,0.970107031 1.03057266,0.970107031 L16.028393,0.970107031 C16.3908305,0.970107031 16.684643,1.26391953 16.684643,1.62635703 L16.684643,10.980943 C16.684643,11.3433805 16.3908305,11.637193 16.028393,11.637193 C15.6659555,11.637193 15.372143,11.3433805 15.372143,10.980943 L15.372143,2.28260703 L1.68682266,2.28260703 L1.68682266,19.7173883 L6.79530703,19.7173883 C7.15774453,19.7173883 7.45155703,20.0112008 7.45155703,20.3736383 C7.45155703,20.7360758 7.15774453,21.0298883 6.79530703,21.0298883 Z" id="Fill-1"></path>
                    <path d="M10.7832422,20.7430414 C10.6091953,20.7430414 10.4422734,20.6739008 10.3192031,20.5508305 L6.7033125,16.9349398 C6.44702344,16.6786508 6.44702344,16.2631273 6.7033125,16.0068617 C6.95957812,15.7505727 7.37510156,15.7505727 7.63139062,16.0068617 L10.7832422,19.1587133 L17.5094766,12.4324789 C17.7657656,12.1761898 18.1812656,12.1761664 18.4375547,12.4324789 C18.6938437,12.6887445 18.6938437,13.104268 18.4375547,13.3605336 L11.2472812,20.5508305 C11.1242109,20.6739008 10.9572891,20.7430414 10.7832422,20.7430414" id="Fill-3"></path>
                    <path d="M13.0155937,5.88976719 L4.34845312,5.88976719 C3.98601562,5.88976719 3.69220312,5.59595469 3.69220312,5.23351719 C3.69220312,4.87107969 3.98601562,4.57726719 4.34845312,4.57726719 L13.0155937,4.57726719 C13.3780312,4.57726719 13.6718437,4.87107969 13.6718437,5.23351719 C13.6718437,5.59595469 13.3780312,5.88976719 13.0155937,5.88976719" id="Fill-7"></path>
                    <path d="M13.0155937,9.83841406 L4.34845312,9.83841406 C3.98601562,9.83841406 3.69220312,9.54460156 3.69220312,9.18216406 C3.69220312,8.81972656 3.98601562,8.52591406 4.34845312,8.52591406 L13.0155937,8.52591406 C13.3780312,8.52591406 13.6718437,8.81972656 13.6718437,9.18216406 C13.6718437,9.54460156 13.3780312,9.83841406 13.0155937,9.83841406" id="Fill-8"></path>
                    <path d="M8.98953984,13.7870609 L4.34844609,13.7870609 C3.98603203,13.7870609 3.69219609,13.4932484 3.69219609,13.1308109 C3.69219609,12.7683734 3.98603203,12.4745609 4.34844609,12.4745609 L8.98953984,12.4745609 C9.35197734,12.4745609 9.64578984,12.7683734 9.64578984,13.1308109 C9.64578984,13.4932484 9.35197734,13.7870609 8.98953984,13.7870609" id="Fill-9"></path>
                </g>
            </g>
            <g id="页面-1-copy-3" transform="translate(58.000000, 110.000000)" fill="url(#linearGradient-1)">
                <g id="Page-1" transform="translate(3.000000, 1.000000)">
                    <path d="M6.79530703,21.0298883 L1.03057266,21.0298883 C0.668135156,21.0298883 0.374322656,20.7360758 0.374322656,20.3736383 L0.374322656,1.62635703 C0.374322656,1.26391953 0.668135156,0.970107031 1.03057266,0.970107031 L16.028393,0.970107031 C16.3908305,0.970107031 16.684643,1.26391953 16.684643,1.62635703 L16.684643,10.980943 C16.684643,11.3433805 16.3908305,11.637193 16.028393,11.637193 C15.6659555,11.637193 15.372143,11.3433805 15.372143,10.980943 L15.372143,2.28260703 L1.68682266,2.28260703 L1.68682266,19.7173883 L6.79530703,19.7173883 C7.15774453,19.7173883 7.45155703,20.0112008 7.45155703,20.3736383 C7.45155703,20.7360758 7.15774453,21.0298883 6.79530703,21.0298883 Z" id="Fill-1"></path>
                    <path d="M10.7832422,20.7430414 C10.6091953,20.7430414 10.4422734,20.6739008 10.3192031,20.5508305 L6.7033125,16.9349398 C6.44702344,16.6786508 6.44702344,16.2631273 6.7033125,16.0068617 C6.95957812,15.7505727 7.37510156,15.7505727 7.63139062,16.0068617 L10.7832422,19.1587133 L17.5094766,12.4324789 C17.7657656,12.1761898 18.1812656,12.1761664 18.4375547,12.4324789 C18.6938437,12.6887445 18.6938437,13.104268 18.4375547,13.3605336 L11.2472812,20.5508305 C11.1242109,20.6739008 10.9572891,20.7430414 10.7832422,20.7430414" id="Fill-3"></path>
                    <path d="M13.0155937,5.88976719 L4.34845312,5.88976719 C3.98601562,5.88976719 3.69220312,5.59595469 3.69220312,5.23351719 C3.69220312,4.87107969 3.98601562,4.57726719 4.34845312,4.57726719 L13.0155937,4.57726719 C13.3780312,4.57726719 13.6718437,4.87107969 13.6718437,5.23351719 C13.6718437,5.59595469 13.3780312,5.88976719 13.0155937,5.88976719" id="Fill-7"></path>
                    <path d="M13.0155937,9.83841406 L4.34845312,9.83841406 C3.98601562,9.83841406 3.69220312,9.54460156 3.69220312,9.18216406 C3.69220312,8.81972656 3.98601562,8.52591406 4.34845312,8.52591406 L13.0155937,8.52591406 C13.3780312,8.52591406 13.6718437,8.81972656 13.6718437,9.18216406 C13.6718437,9.54460156 13.3780312,9.83841406 13.0155937,9.83841406" id="Fill-8"></path>
                    <path d="M8.98953984,13.7870609 L4.34844609,13.7870609 C3.98603203,13.7870609 3.69219609,13.4932484 3.69219609,13.1308109 C3.69219609,12.7683734 3.98603203,12.4745609 4.34844609,12.4745609 L8.98953984,12.4745609 C9.35197734,12.4745609 9.64578984,12.7683734 9.64578984,13.1308109 C9.64578984,13.4932484 9.35197734,13.7870609 8.98953984,13.7870609" id="Fill-9"></path>
                </g>
            </g>
            <g id="大回收站线" transform="translate(82.000000, 86.000000)" fill="#BFBFBF">
                <g id="Page-1" transform="translate(1.000000, 1.000000)">
                    <g id="Group-10">
                        <path d="M8.6351,1.987 L13.3951,1.987 L14.1361,2.82 L7.8931,2.82 L8.6351,1.987 Z M20.7141,2.82 L15.8921,2.82 L14.1801,0.895 C14.0561,0.755 13.8771,0.675 13.6901,0.675 L8.3411,0.675 C8.1541,0.675 7.9751,0.754 7.8511,0.894 L6.1351,2.82 L1.2611,2.82 C0.8981,2.82 0.6041,3.114 0.6041,3.477 C0.6041,3.839 0.8981,4.133 1.2611,4.133 L20.7141,4.133 C21.0761,4.133 21.3701,3.839 21.3701,3.477 C21.3701,3.114 21.0761,2.82 20.7141,2.82 L20.7141,2.82 Z" id="Fill-2"></path>
                        <path d="M16.3965,20.0703 L5.5345,20.0703 L4.2015,6.8273 L17.7945,6.7823 L16.3965,20.0703 Z M18.5235,5.4683 L18.5225,5.4683 L3.4745,5.5163 C3.2895,5.5173 3.1135,5.5963 2.9895,5.7333 C2.8655,5.8713 2.8055,6.0543 2.8235,6.2383 L4.2875,20.7923 C4.3215,21.1273 4.6035,21.3823 4.9405,21.3823 L16.9875,21.3823 C17.3235,21.3823 17.6045,21.1293 17.6395,20.7953 L19.1765,6.1923 C19.1955,6.0073 19.1355,5.8223 19.0105,5.6843 C18.8855,5.5463 18.7095,5.4683 18.5235,5.4683 L18.5235,5.4683 Z" id="Fill-4"></path>
                        <path d="M8.377,17.8248 C8.404,18.1688 8.691,18.4298 9.031,18.4298 C9.048,18.4298 9.065,18.4288 9.083,18.4278 C9.444,18.3998 9.714,18.0838 9.685,17.7218 L9.029,9.3548 C9.001,8.9938 8.685,8.7238 8.324,8.7518 C7.962,8.7808 7.692,9.0968 7.721,9.4578 L8.377,17.8248 Z" id="Fill-6"></path>
                        <path d="M12.9174,18.4277 C12.9344,18.4287 12.9524,18.4297 12.9694,18.4297 C13.3084,18.4297 13.5964,18.1687 13.6234,17.8247 L14.2794,9.4577 C14.3074,9.0967 14.0374,8.7807 13.6764,8.7517 C13.3154,8.7237 12.9994,8.9937 12.9704,9.3547 L12.3144,17.7217 C12.2864,18.0837 12.5564,18.3997 12.9174,18.4277" id="Fill-8"></path>
                    </g>
                </g>
            </g>
            <g id="移动到文件夹面-copy" transform="translate(34.000000, 86.000000)" fill="#BFBFBF">
                <g id="Page-1" transform="translate(1.000000, 3.000000)">
                    <g id="Group-6">
                        <path d="M15.6211,10.014 L12.1141,6.507 C11.8581,6.251 11.4421,6.251 11.1861,6.507 C10.9301,6.763 10.9301,7.179 11.1861,7.435 L13.5931,9.842 L6.8431,9.842 C6.4801,9.842 6.1871,10.136 6.1871,10.498 C6.1871,10.86 6.4801,11.154 6.8431,11.154 L13.5531,11.154 L11.1461,13.561 C10.8901,13.817 10.8901,14.233 11.1461,14.489 C11.2741,14.617 11.4421,14.681 11.6101,14.681 C11.7781,14.681 11.9461,14.617 12.0741,14.489 L15.5151,11.048 C15.6951,10.931 15.8131,10.728 15.8131,10.498 L15.8131,10.488 L15.8131,10.478 C15.8131,10.304 15.7441,10.137 15.6211,10.014" id="Fill-2"></path>
                        <path d="M20.0923,16.6742 L1.9073,16.6742 L1.9073,4.5722 L10.6703,4.5722 L19.5763,4.5722 C19.8613,4.5722 20.0923,4.8032 20.0923,5.0872 L20.0923,16.6742 Z M19.5763,3.2592 L10.6703,3.2592 C10.3863,3.2592 10.1543,3.0282 10.1543,2.7442 L10.1543,1.9232 C10.1543,0.9152 9.3343,0.0952 8.3263,0.0952 L2.4233,0.0952 C1.4153,0.0952 0.5953,0.9152 0.5953,1.9232 L0.5953,17.3302 C0.5953,17.6932 0.8893,17.9862 1.2513,17.9862 L20.7483,17.9862 C21.1113,17.9862 21.4043,17.6932 21.4043,17.3302 L21.4043,5.0872 C21.4043,4.0792 20.5843,3.2592 19.5763,3.2592 L19.5763,3.2592 Z" id="Fill-4"></path>
                    </g>
                </g>
            </g>
            <g id="大回收站线-copy" transform="translate(82.000000, 110.000000)" fill="url(#linearGradient-1)">
                <g id="Page-1" transform="translate(1.000000, 1.000000)">
                    <path d="M8.341,0.675 C8.154,0.675 7.976,0.755 7.851,0.894 L7.851,0.894 L6.135,2.82 L1.261,2.82 C0.898,2.82 0.605,3.115 0.605,3.476 L0.605,3.476 C0.605,3.839 0.898,4.132 1.261,4.132 L1.261,4.132 L20.714,4.132 C21.076,4.132 21.37,3.839 21.37,3.476 L21.37,3.476 C21.37,3.115 21.076,2.82 20.714,2.82 L20.714,2.82 L15.892,2.82 L14.18,0.895 C14.056,0.755 13.877,0.675 13.69,0.675 L13.69,0.675 L8.341,0.675 Z M8.635,1.987 L13.396,1.987 L14.136,2.82 L7.893,2.82 L8.635,1.987 Z" id="Fill-2"></path>
                    <path d="M18.521,5.468 L3.475,5.517 C3.289,5.518 3.113,5.596 2.989,5.734 L2.989,5.734 C2.865,5.871 2.805,6.055 2.823,6.238 L2.823,6.238 L4.288,20.792 C4.321,21.128 4.603,21.383 4.94,21.383 L4.94,21.383 L16.987,21.383 C17.323,21.383 17.605,21.129 17.64,20.795 L17.64,20.795 L19.176,6.193 C19.196,6.007 19.136,5.823 19.011,5.684 L19.011,5.684 C18.886,5.546 18.709,5.468 18.524,5.468 L18.524,5.468 L18.521,5.468 Z M8.377,17.825 L7.721,9.458 C7.692,9.096 7.962,8.781 8.324,8.752 L8.324,8.752 C8.685,8.723 9.001,8.993 9.03,9.355 L9.03,9.355 L9.686,17.722 C9.714,18.083 9.444,18.399 9.083,18.428 L9.083,18.428 C9.065,18.429 9.048,18.43 9.031,18.43 L9.031,18.43 C8.691,18.43 8.404,18.169 8.377,17.825 L8.377,17.825 Z M12.918,18.428 C12.556,18.399 12.286,18.083 12.315,17.722 L12.315,17.722 L12.971,9.355 C12.999,8.993 13.314,8.724 13.676,8.752 L13.676,8.752 C14.037,8.781 14.307,9.096 14.279,9.458 L14.279,9.458 L13.623,17.825 C13.596,18.169 13.308,18.43 12.97,18.43 L12.97,18.43 C12.952,18.43 12.935,18.429 12.918,18.428 L12.918,18.428 Z" id="Fill-4"></path>
                </g>
            </g>
            <g id="关闭" transform="translate(107.000000, 87.000000)" fill="#BFBFBF">
                <path d="M21.5967714,19.5806247 L12.8986933,10.9157582 L21.3687682,2.34235427 C21.9048182,1.81042774 21.9048182,0.951161815 21.3687682,0.419235311 C20.8327182,-0.112691194 20.3451795,-0.112691223 19.8091296,0.419235311 L11.0698169,9.09372938 L2.3620366,0.419235311 C1.82598661,-0.112691223 0.96005971,-0.112691223 0.424009744,0.419235311 C-0.112040222,0.951161844 -0.112040251,1.81042777 0.424009744,2.34235427 L9.148769,11 L0.4264353,19.6576457 C-0.109614695,20.1895723 -0.109614695,21.0488382 0.4264353,21.5807647 C0.962485295,22.1126912 1.82841219,22.1126912 2.36446216,21.5807647 L10.9994755,12.8388772 L19.8091296,21.5807647 C20.3451796,22.1126912 21.0607214,22.0356702 21.5943458,21.5061506 C22.1279702,20.976631 22.1328213,20.1125512 21.5967714,19.5806247 Z" id="Shape"></path>
            </g>
            <g id="关闭-copy" transform="translate(107.000000, 111.000000)" fill="#9B9B9B">
                <path d="M21.5967714,19.5806247 L12.8986933,10.9157582 L21.3687682,2.34235427 C21.9048182,1.81042774 21.9048182,0.951161815 21.3687682,0.419235311 C20.8327182,-0.112691194 20.3451795,-0.112691223 19.8091296,0.419235311 L11.0698169,9.09372938 L2.3620366,0.419235311 C1.82598661,-0.112691223 0.96005971,-0.112691223 0.424009744,0.419235311 C-0.112040222,0.951161844 -0.112040251,1.81042777 0.424009744,2.34235427 L9.148769,11 L0.4264353,19.6576457 C-0.109614695,20.1895723 -0.109614695,21.0488382 0.4264353,21.5807647 C0.962485295,22.1126912 1.82841219,22.1126912 2.36446216,21.5807647 L10.9994755,12.8388772 L19.8091296,21.5807647 C20.3451796,22.1126912 21.0607214,22.0356702 21.5943458,21.5061506 C22.1279702,20.976631 22.1328213,20.1125512 21.5967714,19.5806247 Z" id="Shape"></path>
            </g>
        </g>
    </g>
</svg>